<?xml version="1.0" standalone="no"?>
<!DOCTYPE svg PUBLIC "-//W3C//DTD SVG 20010904//EN"
 "http://www.w3.org/TR/2001/REC-SVG-20010904/DTD/svg10.dtd">
<svg version="1.0" xmlns="http://www.w3.org/2000/svg"
 width="461.000000pt" height="461.000000pt" viewBox="0 0 461.000000 461.000000"
 preserveAspectRatio="xMidYMid meet">
<metadata>
Created by potrace 1.14, written by Peter Selinger 2001-2017
</metadata>
<g transform="translate(0.000000,461.000000) scale(0.100000,-0.100000)"
fill="#000000" stroke="none">
<path d="M753 4155 c-153 -42 -258 -147 -298 -300 -13 -52 -15 -243 -15 -1555
0 -1612 -2 -1548 51 -1652 29 -58 100 -130 157 -161 110 -60 28 -57 1662 -57
1634 0 1552 -3 1662 57 57 31 128 103 157 161 53 104 51 40 51 1652 0 1312 -2
1503 -15 1555 -41 155 -146 259 -302 300 -84 22 -3029 21 -3110 0z m1354 -336
c35 -13 70 -45 91 -84 15 -27 17 -92 20 -590 2 -386 0 -576 -8 -611 -14 -65
-63 -117 -125 -133 -54 -14 -1111 -15 -1169 -1 -45 10 -81 34 -110 74 -21 27
-21 37 -21 640 l0 613 27 35 c54 70 27 68 680 68 392 0 596 -4 615 -11z m850
-1170 c38 -14 851 -825 869 -866 18 -42 18 -107 0 -141 -18 -33 -832 -845
-863 -861 -31 -16 -109 -14 -141 3 -39 21 -837 825 -856 863 -20 40 -20 83 -1
131 19 44 774 807 844 853 48 31 98 37 148 18z"/>
<path d="M1051 3622 c-94 -48 -108 -166 -27 -241 34 -32 119 -41 165 -17 73
38 97 154 45 216 -51 60 -118 76 -183 42z"/>
<path d="M1811 3622 c-74 -37 -102 -127 -61 -199 28 -51 66 -73 127 -73 94 0
149 60 141 157 -9 106 -113 164 -207 115z"/>
<path d="M1431 3242 c-47 -23 -72 -61 -78 -114 -10 -84 45 -149 130 -156 65
-5 109 14 138 61 29 46 23 136 -12 173 -52 55 -116 68 -178 36z"/>
<path d="M1040 2858 c-119 -80 -77 -254 63 -266 97 -8 157 47 157 141 0 85
-49 138 -134 145 -41 3 -58 -1 -86 -20z"/>
<path d="M1802 2860 c-121 -74 -81 -254 59 -268 64 -6 110 15 140 65 29 47 23
132 -12 169 -53 57 -127 70 -187 34z"/>
<path d="M2831 2378 c-28 -14 -51 -36 -63 -58 -39 -75 -12 -159 63 -198 100
-52 209 14 209 128 0 114 -109 180 -209 128z"/>
<path d="M2290 1842 c-49 -26 -83 -93 -75 -147 8 -50 27 -81 68 -105 63 -39
162 -18 201 42 61 94 -12 228 -124 228 -19 0 -51 -8 -70 -18z"/>
<path d="M2831 1842 c-47 -23 -72 -61 -78 -114 -10 -86 53 -158 138 -158 95 0
149 53 149 147 0 41 -5 58 -26 83 -51 60 -118 76 -183 42z"/>
<path d="M3365 1841 c-51 -31 -68 -58 -73 -115 -8 -96 47 -156 141 -156 60 0
99 21 126 70 72 128 -72 277 -194 201z"/>
<path d="M2840 1313 c-23 -9 -60 -45 -76 -75 -31 -60 -6 -144 56 -186 29 -20
44 -23 89 -19 48 3 59 9 93 45 34 37 38 47 38 92 0 94 -53 151 -140 149 -25 0
-52 -3 -60 -6z"/>
</g>
</svg>
